<svg xmlns="http://www.w3.org/2000/svg" width="400" height="623" viewBox="0 0 400 623"><g fill="#77BBE7"><path d="M145.07 426.743c-23.116 0-43.043-7.493-52.767-18.333-.797-.638-1.754-1.435-2.55-2.232 0 0 13.868 26.622 55.316 25.825 41.447.797 55.316-25.825 55.316-25.825-.797.797-1.754 1.594-2.55 2.232-9.725 10.84-29.652 18.333-52.767 18.333zM79.39 576.752c-16.58 0-30.926-8.927-38.1-21.84-.638-.797-1.275-1.754-1.913-2.71 0 0 10.043 31.723 39.854 30.926 29.812.956 39.855-30.926 39.855-30.926-.638.956-1.275 1.754-1.913 2.71-6.696 12.912-21.043 21.84-37.782 21.84zM297.63 205.156c-26.304 0-49.1-14.028-60.42-34.752-.955-1.275-1.912-2.71-2.868-4.304 0 0 15.94 50.375 63.288 48.94 47.346 1.435 63.288-48.94 63.288-48.94l-2.87 4.304c-11.16 20.724-34.116 34.752-60.42 34.752zM145.07 58.495c-18.015 0-33.478-9.565-41.13-23.593l-1.913-2.87s10.84 34.435 43.042 33.32c32.2.955 43.04-33.32 43.04-33.32l-1.912 2.87c-7.652 14.028-23.115 23.593-41.13 23.593zM270.528 535.782c-17.536 0-32.68-9.405-40.172-23.115l-1.913-2.87s10.68 33.637 42.085 32.68c31.564.957 42.085-32.68 42.085-32.68l-1.913 2.87c-7.492 13.71-22.636 23.115-40.172 23.115z"/></g></svg>