<?xml version="1.0" encoding="utf-8"?>
<!-- Generator: Adobe Illustrator 17.0.0, SVG Export Plug-In . SVG Version: 6.00 Build 0)  -->
<!DOCTYPE svg PUBLIC "-//W3C//DTD SVG 1.1//EN" "http://www.w3.org/Graphics/SVG/1.1/DTD/svg11.dtd">
<svg version="1.1" id="Layer_1" xmlns="http://www.w3.org/2000/svg" xmlns:xlink="http://www.w3.org/1999/xlink" x="0px" y="0px"
	 width="400px" height="623px" viewBox="0 0 400 623" enable-background="new 0 0 400 623" xml:space="preserve">
<g>
	<path fill="#77BBE7" d="M145.069,426.743c-23.115,0-43.042-7.493-52.766-18.333c-0.797-0.638-1.754-1.435-2.551-2.232
		c0,0,13.869,26.622,55.317,25.825c41.448,0.797,55.317-25.825,55.317-25.825c-0.797,0.797-1.754,1.594-2.551,2.232
		C188.111,419.25,168.184,426.743,145.069,426.743z"/>
	<path fill="#77BBE7" d="M79.39,576.752c-16.579,0-30.926-8.927-38.1-21.84c-0.638-0.797-1.275-1.754-1.913-2.71
		c0,0,10.043,31.723,39.854,30.926c29.811,0.956,39.854-30.926,39.854-30.926c-0.638,0.956-1.275,1.754-1.913,2.71
		C110.476,567.824,96.129,576.752,79.39,576.752z"/>
	<path fill="#77BBE7" d="M297.629,205.156c-26.303,0-49.1-14.028-60.418-34.752c-0.956-1.275-1.913-2.71-2.869-4.304
		c0,0,15.941,50.375,63.288,48.94c47.346,1.435,63.288-48.94,63.288-48.94c-0.957,1.435-1.913,2.869-2.869,4.304
		C346.888,191.128,323.932,205.156,297.629,205.156z"/>
	<path fill="#77BBE7" d="M145.069,58.495c-18.014,0-33.477-9.565-41.129-23.593c-0.638-0.956-1.275-1.913-1.913-2.869
		c0,0,10.84,34.434,43.042,33.318c32.202,0.956,43.042-33.318,43.042-33.318c-0.638,0.956-1.275,1.913-1.913,2.869
		C178.546,48.93,163.083,58.495,145.069,58.495z"/>
	<path fill="#77BBE7" d="M270.528,535.782c-17.536,0-32.68-9.405-40.172-23.115c-0.638-0.956-1.275-1.913-1.913-2.869
		c0,0,10.681,33.636,42.085,32.68c31.564,0.956,42.085-32.68,42.085-32.68c-0.638,0.957-1.275,1.913-1.913,2.869
		C303.208,526.377,288.064,535.782,270.528,535.782z"/>
</g>
</svg>
